<svg width="640" height="640" viewBox="0 0 640 640" xmlns="http://www.w3.org/2000/svg">
  <rect width="640" height="640" rx="160" fill="#E9EFF5"/>
  <g transform="translate(112 124)">
    <rect x="0" y="0" width="416" height="392" rx="104" fill="#D3E2EE"/>
    <path d="M84 248C84 180 136 128 204 128H332V188H212C180 188 156 212 156 244C156 276 180 300 212 300H284V360H204C136 360 84 308 84 248Z" fill="#1F4D6E"/>
    <path d="M248 76H332V360H248V76Z" fill="#2F739F"/>
    <circle cx="332" cy="118" r="48" fill="#7FB0D2"/>
  </g>
  <g fill="#1E3245">
    <rect x="116" y="522" width="172" height="20" rx="10"/>
    <rect x="302" y="522" width="226" height="20" rx="10" opacity="0.75"/>
  </g>
</svg>